<svg version="1.1" xmlns="http://www.w3.org/2000/svg" xmlns:xlink="http://www.w3.org/1999/xlink" x="0px" y="0px" width="28px" height="28px" viewBox="0 0 28 28" style="enable-background:new 0 0 28 28;" xml:space="preserve">
    <path class="st0" d="M12.016,27.812c6.521,0,11.826-5.305,11.826-11.826c0-3.011-1.14-5.753-2.999-7.844l6.969-6.969l-0.984-0.984  l-6.969,6.969c-2.09-1.859-4.833-2.999-7.844-2.999c-6.521,0-11.826,5.305-11.826,11.826C0.19,22.507,5.495,27.812,12.016,27.812z   M12.016,5.55c2.627,0,5.023,0.983,6.86,2.591l-8.947,8.947l-2.986-2.986l-0.984,0.984l3.97,3.97l9.93-9.93  c1.608,1.837,2.591,4.233,2.591,6.86c0,5.754-4.681,10.435-10.435,10.435S1.58,21.741,1.58,15.986  C1.581,10.231,6.262,5.55,12.016,5.55z"/><style type="text/css">
        .st0{fill:#ff5a02;}
    </style>    
</svg>